<?xml version="1.0" encoding="utf-8" standalone="no"?>
<!DOCTYPE svg PUBLIC "-//W3C//DTD SVG 1.1//EN"
  "http://www.w3.org/Graphics/SVG/1.1/DTD/svg11.dtd">
<svg xmlns:xlink="http://www.w3.org/1999/xlink" width="864pt" height="576pt" viewBox="0 0 864 576" xmlns="http://www.w3.org/2000/svg" version="1.1">
 <metadata>
  <rdf:RDF xmlns:dc="http://purl.org/dc/elements/1.1/" xmlns:cc="http://creativecommons.org/ns#" xmlns:rdf="http://www.w3.org/1999/02/22-rdf-syntax-ns#">
   <cc:Work>
    <dc:type rdf:resource="http://purl.org/dc/dcmitype/StillImage"/>
    <dc:date>2025-01-16T10:50:03.488818</dc:date>
    <dc:format>image/svg+xml</dc:format>
    <dc:creator>
     <cc:Agent>
      <dc:title>Matplotlib v3.9.1, https://matplotlib.org/</dc:title>
     </cc:Agent>
    </dc:creator>
   </cc:Work>
  </rdf:RDF>
 </metadata>
 <defs>
  <style type="text/css">*{stroke-linejoin: round; stroke-linecap: butt}</style>
 </defs>
 <g id="figure_1">
  <g id="patch_1">
   <path d="M 0 576 
L 864 576 
L 864 0 
L 0 0 
z
" style="fill: #ffffff"/>
  </g>
  <g id="axes_1">
   <g id="patch_2">
    <path d="M 74.79 525.06 
L 851.04 525.06 
L 851.04 30.48 
L 74.79 30.48 
z
" style="fill: #ffffff"/>
   </g>
   <g id="matplotlib.axis_1">
    <g id="xtick_1">
     <g id="text_1">
      <!-- 512 -->
      <g style="fill: #262626" transform="translate(193.666875 542.918281) scale(0.11 -0.11)">
       <defs>
        <path id="DejaVuSans-35" d="M 691 4666 
L 3169 4666 
L 3169 4134 
L 1269 4134 
L 1269 2991 
Q 1406 3038 1543 3061 
Q 1681 3084 1819 3084 
Q 2600 3084 3056 2656 
Q 3513 2228 3513 1497 
Q 3513 744 3044 326 
Q 2575 -91 1722 -91 
Q 1428 -91 1123 -41 
Q 819 9 494 109 
L 494 744 
Q 775 591 1075 516 
Q 1375 441 1709 441 
Q 2250 441 2565 725 
Q 2881 1009 2881 1497 
Q 2881 1984 2565 2268 
Q 2250 2553 1709 2553 
Q 1456 2553 1204 2497 
Q 953 2441 691 2322 
L 691 4666 
z
" transform="scale(0.015625)"/>
        <path id="DejaVuSans-31" d="M 794 531 
L 1825 531 
L 1825 4091 
L 703 3866 
L 703 4441 
L 1819 4666 
L 2450 4666 
L 2450 531 
L 3481 531 
L 3481 0 
L 794 0 
L 794 531 
z
" transform="scale(0.015625)"/>
        <path id="DejaVuSans-32" d="M 1228 531 
L 3431 531 
L 3431 0 
L 469 0 
L 469 531 
Q 828 903 1448 1529 
Q 2069 2156 2228 2338 
Q 2531 2678 2651 2914 
Q 2772 3150 2772 3378 
Q 2772 3750 2511 3984 
Q 2250 4219 1831 4219 
Q 1534 4219 1204 4116 
Q 875 4013 500 3803 
L 500 4441 
Q 881 4594 1212 4672 
Q 1544 4750 1819 4750 
Q 2544 4750 2975 4387 
Q 3406 4025 3406 3419 
Q 3406 3131 3298 2873 
Q 3191 2616 2906 2266 
Q 2828 2175 2409 1742 
Q 1991 1309 1228 531 
z
" transform="scale(0.015625)"/>
       </defs>
       <use xlink:href="#DejaVuSans-35"/>
       <use xlink:href="#DejaVuSans-31" x="63.623047"/>
       <use xlink:href="#DejaVuSans-32" x="127.246094"/>
      </g>
     </g>
    </g>
    <g id="xtick_2">
     <g id="text_2">
      <!-- 1024 -->
      <g style="fill: #262626" transform="translate(448.9175 542.918281) scale(0.11 -0.11)">
       <defs>
        <path id="DejaVuSans-30" d="M 2034 4250 
Q 1547 4250 1301 3770 
Q 1056 3291 1056 2328 
Q 1056 1369 1301 889 
Q 1547 409 2034 409 
Q 2525 409 2770 889 
Q 3016 1369 3016 2328 
Q 3016 3291 2770 3770 
Q 2525 4250 2034 4250 
z
M 2034 4750 
Q 2819 4750 3233 4129 
Q 3647 3509 3647 2328 
Q 3647 1150 3233 529 
Q 2819 -91 2034 -91 
Q 1250 -91 836 529 
Q 422 1150 422 2328 
Q 422 3509 836 4129 
Q 1250 4750 2034 4750 
z
" transform="scale(0.015625)"/>
        <path id="DejaVuSans-34" d="M 2419 4116 
L 825 1625 
L 2419 1625 
L 2419 4116 
z
M 2253 4666 
L 3047 4666 
L 3047 1625 
L 3713 1625 
L 3713 1100 
L 3047 1100 
L 3047 0 
L 2419 0 
L 2419 1100 
L 313 1100 
L 313 1709 
L 2253 4666 
z
" transform="scale(0.015625)"/>
       </defs>
       <use xlink:href="#DejaVuSans-31"/>
       <use xlink:href="#DejaVuSans-30" x="63.623047"/>
       <use xlink:href="#DejaVuSans-32" x="127.246094"/>
       <use xlink:href="#DejaVuSans-34" x="190.869141"/>
      </g>
     </g>
    </g>
    <g id="xtick_3">
     <g id="text_3">
      <!-- 1536 -->
      <g style="fill: #262626" transform="translate(707.6675 542.918281) scale(0.11 -0.11)">
       <defs>
        <path id="DejaVuSans-33" d="M 2597 2516 
Q 3050 2419 3304 2112 
Q 3559 1806 3559 1356 
Q 3559 666 3084 287 
Q 2609 -91 1734 -91 
Q 1441 -91 1130 -33 
Q 819 25 488 141 
L 488 750 
Q 750 597 1062 519 
Q 1375 441 1716 441 
Q 2309 441 2620 675 
Q 2931 909 2931 1356 
Q 2931 1769 2642 2001 
Q 2353 2234 1838 2234 
L 1294 2234 
L 1294 2753 
L 1863 2753 
Q 2328 2753 2575 2939 
Q 2822 3125 2822 3475 
Q 2822 3834 2567 4026 
Q 2313 4219 1838 4219 
Q 1578 4219 1281 4162 
Q 984 4106 628 3988 
L 628 4550 
Q 988 4650 1302 4700 
Q 1616 4750 1894 4750 
Q 2613 4750 3031 4423 
Q 3450 4097 3450 3541 
Q 3450 3153 3228 2886 
Q 3006 2619 2597 2516 
z
" transform="scale(0.015625)"/>
        <path id="DejaVuSans-36" d="M 2113 2584 
Q 1688 2584 1439 2293 
Q 1191 2003 1191 1497 
Q 1191 994 1439 701 
Q 1688 409 2113 409 
Q 2538 409 2786 701 
Q 3034 994 3034 1497 
Q 3034 2003 2786 2293 
Q 2538 2584 2113 2584 
z
M 3366 4563 
L 3366 3988 
Q 3128 4100 2886 4159 
Q 2644 4219 2406 4219 
Q 1781 4219 1451 3797 
Q 1122 3375 1075 2522 
Q 1259 2794 1537 2939 
Q 1816 3084 2150 3084 
Q 2853 3084 3261 2657 
Q 3669 2231 3669 1497 
Q 3669 778 3244 343 
Q 2819 -91 2113 -91 
Q 1303 -91 875 529 
Q 447 1150 447 2328 
Q 447 3434 972 4092 
Q 1497 4750 2381 4750 
Q 2619 4750 2861 4703 
Q 3103 4656 3366 4563 
z
" transform="scale(0.015625)"/>
       </defs>
       <use xlink:href="#DejaVuSans-31"/>
       <use xlink:href="#DejaVuSans-35" x="63.623047"/>
       <use xlink:href="#DejaVuSans-33" x="127.246094"/>
       <use xlink:href="#DejaVuSans-36" x="190.869141"/>
      </g>
     </g>
    </g>
    <g id="text_4">
     <!-- Sequence Length -->
     <g style="fill: #262626" transform="translate(402.013906 559.84375) scale(0.14 -0.14)">
      <defs>
       <path id="DejaVuSans-53" d="M 3425 4513 
L 3425 3897 
Q 3066 4069 2747 4153 
Q 2428 4238 2131 4238 
Q 1616 4238 1336 4038 
Q 1056 3838 1056 3469 
Q 1056 3159 1242 3001 
Q 1428 2844 1947 2747 
L 2328 2669 
Q 3034 2534 3370 2195 
Q 3706 1856 3706 1288 
Q 3706 609 3251 259 
Q 2797 -91 1919 -91 
Q 1588 -91 1214 -16 
Q 841 59 441 206 
L 441 856 
Q 825 641 1194 531 
Q 1563 422 1919 422 
Q 2459 422 2753 634 
Q 3047 847 3047 1241 
Q 3047 1584 2836 1778 
Q 2625 1972 2144 2069 
L 1759 2144 
Q 1053 2284 737 2584 
Q 422 2884 422 3419 
Q 422 4038 858 4394 
Q 1294 4750 2059 4750 
Q 2388 4750 2728 4690 
Q 3069 4631 3425 4513 
z
" transform="scale(0.015625)"/>
       <path id="DejaVuSans-65" d="M 3597 1894 
L 3597 1613 
L 953 1613 
Q 991 1019 1311 708 
Q 1631 397 2203 397 
Q 2534 397 2845 478 
Q 3156 559 3463 722 
L 3463 178 
Q 3153 47 2828 -22 
Q 2503 -91 2169 -91 
Q 1331 -91 842 396 
Q 353 884 353 1716 
Q 353 2575 817 3079 
Q 1281 3584 2069 3584 
Q 2775 3584 3186 3129 
Q 3597 2675 3597 1894 
z
M 3022 2063 
Q 3016 2534 2758 2815 
Q 2500 3097 2075 3097 
Q 1594 3097 1305 2825 
Q 1016 2553 972 2059 
L 3022 2063 
z
" transform="scale(0.015625)"/>
       <path id="DejaVuSans-71" d="M 947 1747 
Q 947 1113 1208 752 
Q 1469 391 1925 391 
Q 2381 391 2643 752 
Q 2906 1113 2906 1747 
Q 2906 2381 2643 2742 
Q 2381 3103 1925 3103 
Q 1469 3103 1208 2742 
Q 947 2381 947 1747 
z
M 2906 525 
Q 2725 213 2448 61 
Q 2172 -91 1784 -91 
Q 1150 -91 751 415 
Q 353 922 353 1747 
Q 353 2572 751 3078 
Q 1150 3584 1784 3584 
Q 2172 3584 2448 3432 
Q 2725 3281 2906 2969 
L 2906 3500 
L 3481 3500 
L 3481 -1331 
L 2906 -1331 
L 2906 525 
z
" transform="scale(0.015625)"/>
       <path id="DejaVuSans-75" d="M 544 1381 
L 544 3500 
L 1119 3500 
L 1119 1403 
Q 1119 906 1312 657 
Q 1506 409 1894 409 
Q 2359 409 2629 706 
Q 2900 1003 2900 1516 
L 2900 3500 
L 3475 3500 
L 3475 0 
L 2900 0 
L 2900 538 
Q 2691 219 2414 64 
Q 2138 -91 1772 -91 
Q 1169 -91 856 284 
Q 544 659 544 1381 
z
M 1991 3584 
L 1991 3584 
z
" transform="scale(0.015625)"/>
       <path id="DejaVuSans-6e" d="M 3513 2113 
L 3513 0 
L 2938 0 
L 2938 2094 
Q 2938 2591 2744 2837 
Q 2550 3084 2163 3084 
Q 1697 3084 1428 2787 
Q 1159 2491 1159 1978 
L 1159 0 
L 581 0 
L 581 3500 
L 1159 3500 
L 1159 2956 
Q 1366 3272 1645 3428 
Q 1925 3584 2291 3584 
Q 2894 3584 3203 3211 
Q 3513 2838 3513 2113 
z
" transform="scale(0.015625)"/>
       <path id="DejaVuSans-63" d="M 3122 3366 
L 3122 2828 
Q 2878 2963 2633 3030 
Q 2388 3097 2138 3097 
Q 1578 3097 1268 2742 
Q 959 2388 959 1747 
Q 959 1106 1268 751 
Q 1578 397 2138 397 
Q 2388 397 2633 464 
Q 2878 531 3122 666 
L 3122 134 
Q 2881 22 2623 -34 
Q 2366 -91 2075 -91 
Q 1284 -91 818 406 
Q 353 903 353 1747 
Q 353 2603 823 3093 
Q 1294 3584 2113 3584 
Q 2378 3584 2631 3529 
Q 2884 3475 3122 3366 
z
" transform="scale(0.015625)"/>
       <path id="DejaVuSans-20" transform="scale(0.015625)"/>
       <path id="DejaVuSans-4c" d="M 628 4666 
L 1259 4666 
L 1259 531 
L 3531 531 
L 3531 0 
L 628 0 
L 628 4666 
z
" transform="scale(0.015625)"/>
       <path id="DejaVuSans-67" d="M 2906 1791 
Q 2906 2416 2648 2759 
Q 2391 3103 1925 3103 
Q 1463 3103 1205 2759 
Q 947 2416 947 1791 
Q 947 1169 1205 825 
Q 1463 481 1925 481 
Q 2391 481 2648 825 
Q 2906 1169 2906 1791 
z
M 3481 434 
Q 3481 -459 3084 -895 
Q 2688 -1331 1869 -1331 
Q 1566 -1331 1297 -1286 
Q 1028 -1241 775 -1147 
L 775 -588 
Q 1028 -725 1275 -790 
Q 1522 -856 1778 -856 
Q 2344 -856 2625 -561 
Q 2906 -266 2906 331 
L 2906 616 
Q 2728 306 2450 153 
Q 2172 0 1784 0 
Q 1141 0 747 490 
Q 353 981 353 1791 
Q 353 2603 747 3093 
Q 1141 3584 1784 3584 
Q 2172 3584 2450 3431 
Q 2728 3278 2906 2969 
L 2906 3500 
L 3481 3500 
L 3481 434 
z
" transform="scale(0.015625)"/>
       <path id="DejaVuSans-74" d="M 1172 4494 
L 1172 3500 
L 2356 3500 
L 2356 3053 
L 1172 3053 
L 1172 1153 
Q 1172 725 1289 603 
Q 1406 481 1766 481 
L 2356 481 
L 2356 0 
L 1766 0 
Q 1100 0 847 248 
Q 594 497 594 1153 
L 594 3053 
L 172 3053 
L 172 3500 
L 594 3500 
L 594 4494 
L 1172 4494 
z
" transform="scale(0.015625)"/>
       <path id="DejaVuSans-68" d="M 3513 2113 
L 3513 0 
L 2938 0 
L 2938 2094 
Q 2938 2591 2744 2837 
Q 2550 3084 2163 3084 
Q 1697 3084 1428 2787 
Q 1159 2491 1159 1978 
L 1159 0 
L 581 0 
L 581 4863 
L 1159 4863 
L 1159 2956 
Q 1366 3272 1645 3428 
Q 1925 3584 2291 3584 
Q 2894 3584 3203 3211 
Q 3513 2838 3513 2113 
z
" transform="scale(0.015625)"/>
      </defs>
      <use xlink:href="#DejaVuSans-53"/>
      <use xlink:href="#DejaVuSans-65" x="63.476562"/>
      <use xlink:href="#DejaVuSans-71" x="125"/>
      <use xlink:href="#DejaVuSans-75" x="188.476562"/>
      <use xlink:href="#DejaVuSans-65" x="251.855469"/>
      <use xlink:href="#DejaVuSans-6e" x="313.378906"/>
      <use xlink:href="#DejaVuSans-63" x="376.757812"/>
      <use xlink:href="#DejaVuSans-65" x="431.738281"/>
      <use xlink:href="#DejaVuSans-20" x="493.261719"/>
      <use xlink:href="#DejaVuSans-4c" x="525.048828"/>
      <use xlink:href="#DejaVuSans-65" x="579.011719"/>
      <use xlink:href="#DejaVuSans-6e" x="640.535156"/>
      <use xlink:href="#DejaVuSans-67" x="703.914062"/>
      <use xlink:href="#DejaVuSans-74" x="767.390625"/>
      <use xlink:href="#DejaVuSans-68" x="806.599609"/>
     </g>
    </g>
   </g>
   <g id="matplotlib.axis_2">
    <g id="ytick_1">
     <g id="line2d_1">
      <path d="M 74.79 525.06 
L 851.04 525.06 
" clip-path="url(#p964911a335)" style="fill: none; stroke: #cccccc; stroke-linecap: round"/>
     </g>
     <g id="text_5">
      <!-- 0 -->
      <g style="fill: #262626" transform="translate(58.29125 529.239141) scale(0.11 -0.11)">
       <use xlink:href="#DejaVuSans-30"/>
      </g>
     </g>
    </g>
    <g id="ytick_2">
     <g id="line2d_2">
      <path d="M 74.79 459.431427 
L 851.04 459.431427 
" clip-path="url(#p964911a335)" style="fill: none; stroke: #cccccc; stroke-linecap: round"/>
     </g>
     <g id="text_6">
      <!-- 2000 -->
      <g style="fill: #262626" transform="translate(37.295 463.610568) scale(0.11 -0.11)">
       <use xlink:href="#DejaVuSans-32"/>
       <use xlink:href="#DejaVuSans-30" x="63.623047"/>
       <use xlink:href="#DejaVuSans-30" x="127.246094"/>
       <use xlink:href="#DejaVuSans-30" x="190.869141"/>
      </g>
     </g>
    </g>
    <g id="ytick_3">
     <g id="line2d_3">
      <path d="M 74.79 393.802855 
L 851.04 393.802855 
" clip-path="url(#p964911a335)" style="fill: none; stroke: #cccccc; stroke-linecap: round"/>
     </g>
     <g id="text_7">
      <!-- 4000 -->
      <g style="fill: #262626" transform="translate(37.295 397.981995) scale(0.11 -0.11)">
       <use xlink:href="#DejaVuSans-34"/>
       <use xlink:href="#DejaVuSans-30" x="63.623047"/>
       <use xlink:href="#DejaVuSans-30" x="127.246094"/>
       <use xlink:href="#DejaVuSans-30" x="190.869141"/>
      </g>
     </g>
    </g>
    <g id="ytick_4">
     <g id="line2d_4">
      <path d="M 74.79 328.174282 
L 851.04 328.174282 
" clip-path="url(#p964911a335)" style="fill: none; stroke: #cccccc; stroke-linecap: round"/>
     </g>
     <g id="text_8">
      <!-- 6000 -->
      <g style="fill: #262626" transform="translate(37.295 332.353423) scale(0.11 -0.11)">
       <use xlink:href="#DejaVuSans-36"/>
       <use xlink:href="#DejaVuSans-30" x="63.623047"/>
       <use xlink:href="#DejaVuSans-30" x="127.246094"/>
       <use xlink:href="#DejaVuSans-30" x="190.869141"/>
      </g>
     </g>
    </g>
    <g id="ytick_5">
     <g id="line2d_5">
      <path d="M 74.79 262.545709 
L 851.04 262.545709 
" clip-path="url(#p964911a335)" style="fill: none; stroke: #cccccc; stroke-linecap: round"/>
     </g>
     <g id="text_9">
      <!-- 8000 -->
      <g style="fill: #262626" transform="translate(37.295 266.72485) scale(0.11 -0.11)">
       <defs>
        <path id="DejaVuSans-38" d="M 2034 2216 
Q 1584 2216 1326 1975 
Q 1069 1734 1069 1313 
Q 1069 891 1326 650 
Q 1584 409 2034 409 
Q 2484 409 2743 651 
Q 3003 894 3003 1313 
Q 3003 1734 2745 1975 
Q 2488 2216 2034 2216 
z
M 1403 2484 
Q 997 2584 770 2862 
Q 544 3141 544 3541 
Q 544 4100 942 4425 
Q 1341 4750 2034 4750 
Q 2731 4750 3128 4425 
Q 3525 4100 3525 3541 
Q 3525 3141 3298 2862 
Q 3072 2584 2669 2484 
Q 3125 2378 3379 2068 
Q 3634 1759 3634 1313 
Q 3634 634 3220 271 
Q 2806 -91 2034 -91 
Q 1263 -91 848 271 
Q 434 634 434 1313 
Q 434 1759 690 2068 
Q 947 2378 1403 2484 
z
M 1172 3481 
Q 1172 3119 1398 2916 
Q 1625 2713 2034 2713 
Q 2441 2713 2670 2916 
Q 2900 3119 2900 3481 
Q 2900 3844 2670 4047 
Q 2441 4250 2034 4250 
Q 1625 4250 1398 4047 
Q 1172 3844 1172 3481 
z
" transform="scale(0.015625)"/>
       </defs>
       <use xlink:href="#DejaVuSans-38"/>
       <use xlink:href="#DejaVuSans-30" x="63.623047"/>
       <use xlink:href="#DejaVuSans-30" x="127.246094"/>
       <use xlink:href="#DejaVuSans-30" x="190.869141"/>
      </g>
     </g>
    </g>
    <g id="ytick_6">
     <g id="line2d_6">
      <path d="M 74.79 196.917137 
L 851.04 196.917137 
" clip-path="url(#p964911a335)" style="fill: none; stroke: #cccccc; stroke-linecap: round"/>
     </g>
     <g id="text_10">
      <!-- 10000 -->
      <g style="fill: #262626" transform="translate(30.29625 201.096277) scale(0.11 -0.11)">
       <use xlink:href="#DejaVuSans-31"/>
       <use xlink:href="#DejaVuSans-30" x="63.623047"/>
       <use xlink:href="#DejaVuSans-30" x="127.246094"/>
       <use xlink:href="#DejaVuSans-30" x="190.869141"/>
       <use xlink:href="#DejaVuSans-30" x="254.492188"/>
      </g>
     </g>
    </g>
    <g id="ytick_7">
     <g id="line2d_7">
      <path d="M 74.79 131.288564 
L 851.04 131.288564 
" clip-path="url(#p964911a335)" style="fill: none; stroke: #cccccc; stroke-linecap: round"/>
     </g>
     <g id="text_11">
      <!-- 12000 -->
      <g style="fill: #262626" transform="translate(30.29625 135.467705) scale(0.11 -0.11)">
       <use xlink:href="#DejaVuSans-31"/>
       <use xlink:href="#DejaVuSans-32" x="63.623047"/>
       <use xlink:href="#DejaVuSans-30" x="127.246094"/>
       <use xlink:href="#DejaVuSans-30" x="190.869141"/>
       <use xlink:href="#DejaVuSans-30" x="254.492188"/>
      </g>
     </g>
    </g>
    <g id="ytick_8">
     <g id="line2d_8">
      <path d="M 74.79 65.659991 
L 851.04 65.659991 
" clip-path="url(#p964911a335)" style="fill: none; stroke: #cccccc; stroke-linecap: round"/>
     </g>
     <g id="text_12">
      <!-- 14000 -->
      <g style="fill: #262626" transform="translate(30.29625 69.839132) scale(0.11 -0.11)">
       <use xlink:href="#DejaVuSans-31"/>
       <use xlink:href="#DejaVuSans-34" x="63.623047"/>
       <use xlink:href="#DejaVuSans-30" x="127.246094"/>
       <use xlink:href="#DejaVuSans-30" x="190.869141"/>
       <use xlink:href="#DejaVuSans-30" x="254.492188"/>
      </g>
     </g>
    </g>
    <g id="text_13">
     <!-- Peak Memory (MB) -->
     <g style="fill: #262626" transform="translate(23.384688 343.610469) rotate(-90) scale(0.14 -0.14)">
      <defs>
       <path id="DejaVuSans-50" d="M 1259 4147 
L 1259 2394 
L 2053 2394 
Q 2494 2394 2734 2622 
Q 2975 2850 2975 3272 
Q 2975 3691 2734 3919 
Q 2494 4147 2053 4147 
L 1259 4147 
z
M 628 4666 
L 2053 4666 
Q 2838 4666 3239 4311 
Q 3641 3956 3641 3272 
Q 3641 2581 3239 2228 
Q 2838 1875 2053 1875 
L 1259 1875 
L 1259 0 
L 628 0 
L 628 4666 
z
" transform="scale(0.015625)"/>
       <path id="DejaVuSans-61" d="M 2194 1759 
Q 1497 1759 1228 1600 
Q 959 1441 959 1056 
Q 959 750 1161 570 
Q 1363 391 1709 391 
Q 2188 391 2477 730 
Q 2766 1069 2766 1631 
L 2766 1759 
L 2194 1759 
z
M 3341 1997 
L 3341 0 
L 2766 0 
L 2766 531 
Q 2569 213 2275 61 
Q 1981 -91 1556 -91 
Q 1019 -91 701 211 
Q 384 513 384 1019 
Q 384 1609 779 1909 
Q 1175 2209 1959 2209 
L 2766 2209 
L 2766 2266 
Q 2766 2663 2505 2880 
Q 2244 3097 1772 3097 
Q 1472 3097 1187 3025 
Q 903 2953 641 2809 
L 641 3341 
Q 956 3463 1253 3523 
Q 1550 3584 1831 3584 
Q 2591 3584 2966 3190 
Q 3341 2797 3341 1997 
z
" transform="scale(0.015625)"/>
       <path id="DejaVuSans-6b" d="M 581 4863 
L 1159 4863 
L 1159 1991 
L 2875 3500 
L 3609 3500 
L 1753 1863 
L 3688 0 
L 2938 0 
L 1159 1709 
L 1159 0 
L 581 0 
L 581 4863 
z
" transform="scale(0.015625)"/>
       <path id="DejaVuSans-4d" d="M 628 4666 
L 1569 4666 
L 2759 1491 
L 3956 4666 
L 4897 4666 
L 4897 0 
L 4281 0 
L 4281 4097 
L 3078 897 
L 2444 897 
L 1241 4097 
L 1241 0 
L 628 0 
L 628 4666 
z
" transform="scale(0.015625)"/>
       <path id="DejaVuSans-6d" d="M 3328 2828 
Q 3544 3216 3844 3400 
Q 4144 3584 4550 3584 
Q 5097 3584 5394 3201 
Q 5691 2819 5691 2113 
L 5691 0 
L 5113 0 
L 5113 2094 
Q 5113 2597 4934 2840 
Q 4756 3084 4391 3084 
Q 3944 3084 3684 2787 
Q 3425 2491 3425 1978 
L 3425 0 
L 2847 0 
L 2847 2094 
Q 2847 2600 2669 2842 
Q 2491 3084 2119 3084 
Q 1678 3084 1418 2786 
Q 1159 2488 1159 1978 
L 1159 0 
L 581 0 
L 581 3500 
L 1159 3500 
L 1159 2956 
Q 1356 3278 1631 3431 
Q 1906 3584 2284 3584 
Q 2666 3584 2933 3390 
Q 3200 3197 3328 2828 
z
" transform="scale(0.015625)"/>
       <path id="DejaVuSans-6f" d="M 1959 3097 
Q 1497 3097 1228 2736 
Q 959 2375 959 1747 
Q 959 1119 1226 758 
Q 1494 397 1959 397 
Q 2419 397 2687 759 
Q 2956 1122 2956 1747 
Q 2956 2369 2687 2733 
Q 2419 3097 1959 3097 
z
M 1959 3584 
Q 2709 3584 3137 3096 
Q 3566 2609 3566 1747 
Q 3566 888 3137 398 
Q 2709 -91 1959 -91 
Q 1206 -91 779 398 
Q 353 888 353 1747 
Q 353 2609 779 3096 
Q 1206 3584 1959 3584 
z
" transform="scale(0.015625)"/>
       <path id="DejaVuSans-72" d="M 2631 2963 
Q 2534 3019 2420 3045 
Q 2306 3072 2169 3072 
Q 1681 3072 1420 2755 
Q 1159 2438 1159 1844 
L 1159 0 
L 581 0 
L 581 3500 
L 1159 3500 
L 1159 2956 
Q 1341 3275 1631 3429 
Q 1922 3584 2338 3584 
Q 2397 3584 2469 3576 
Q 2541 3569 2628 3553 
L 2631 2963 
z
" transform="scale(0.015625)"/>
       <path id="DejaVuSans-79" d="M 2059 -325 
Q 1816 -950 1584 -1140 
Q 1353 -1331 966 -1331 
L 506 -1331 
L 506 -850 
L 844 -850 
Q 1081 -850 1212 -737 
Q 1344 -625 1503 -206 
L 1606 56 
L 191 3500 
L 800 3500 
L 1894 763 
L 2988 3500 
L 3597 3500 
L 2059 -325 
z
" transform="scale(0.015625)"/>
       <path id="DejaVuSans-28" d="M 1984 4856 
Q 1566 4138 1362 3434 
Q 1159 2731 1159 2009 
Q 1159 1288 1364 580 
Q 1569 -128 1984 -844 
L 1484 -844 
Q 1016 -109 783 600 
Q 550 1309 550 2009 
Q 550 2706 781 3412 
Q 1013 4119 1484 4856 
L 1984 4856 
z
" transform="scale(0.015625)"/>
       <path id="DejaVuSans-42" d="M 1259 2228 
L 1259 519 
L 2272 519 
Q 2781 519 3026 730 
Q 3272 941 3272 1375 
Q 3272 1813 3026 2020 
Q 2781 2228 2272 2228 
L 1259 2228 
z
M 1259 4147 
L 1259 2741 
L 2194 2741 
Q 2656 2741 2882 2914 
Q 3109 3088 3109 3444 
Q 3109 3797 2882 3972 
Q 2656 4147 2194 4147 
L 1259 4147 
z
M 628 4666 
L 2241 4666 
Q 2963 4666 3353 4366 
Q 3744 4066 3744 3513 
Q 3744 3084 3544 2831 
Q 3344 2578 2956 2516 
Q 3422 2416 3680 2098 
Q 3938 1781 3938 1306 
Q 3938 681 3513 340 
Q 3088 0 2303 0 
L 628 0 
L 628 4666 
z
" transform="scale(0.015625)"/>
       <path id="DejaVuSans-29" d="M 513 4856 
L 1013 4856 
Q 1481 4119 1714 3412 
Q 1947 2706 1947 2009 
Q 1947 1309 1714 600 
Q 1481 -109 1013 -844 
L 513 -844 
Q 928 -128 1133 580 
Q 1338 1288 1338 2009 
Q 1338 2731 1133 3434 
Q 928 4138 513 4856 
z
" transform="scale(0.015625)"/>
      </defs>
      <use xlink:href="#DejaVuSans-50"/>
      <use xlink:href="#DejaVuSans-65" x="56.677734"/>
      <use xlink:href="#DejaVuSans-61" x="118.201172"/>
      <use xlink:href="#DejaVuSans-6b" x="179.480469"/>
      <use xlink:href="#DejaVuSans-20" x="237.390625"/>
      <use xlink:href="#DejaVuSans-4d" x="269.177734"/>
      <use xlink:href="#DejaVuSans-65" x="355.457031"/>
      <use xlink:href="#DejaVuSans-6d" x="416.980469"/>
      <use xlink:href="#DejaVuSans-6f" x="514.392578"/>
      <use xlink:href="#DejaVuSans-72" x="575.574219"/>
      <use xlink:href="#DejaVuSans-79" x="616.6875"/>
      <use xlink:href="#DejaVuSans-20" x="675.867188"/>
      <use xlink:href="#DejaVuSans-28" x="707.654297"/>
      <use xlink:href="#DejaVuSans-4d" x="746.667969"/>
      <use xlink:href="#DejaVuSans-42" x="832.947266"/>
      <use xlink:href="#DejaVuSans-29" x="901.550781"/>
     </g>
    </g>
   </g>
   <g id="patch_3">
    <path d="M 100.665 525.06 
L 169.665 525.06 
L 169.665 436.252236 
L 100.665 436.252236 
z
" clip-path="url(#p964911a335)" style="fill: #4e1f6f; stroke: #000000; stroke-linejoin: miter"/>
   </g>
   <g id="patch_4">
    <path d="M 359.415 525.06 
L 428.415 525.06 
L 428.415 285.044004 
L 359.415 285.044004 
z
" clip-path="url(#p964911a335)" style="fill: #4e1f6f; stroke: #000000; stroke-linejoin: miter"/>
   </g>
   <g id="patch_5">
    <path d="M 618.165 525.06 
L 687.165 525.06 
L 687.165 54.031429 
L 618.165 54.031429 
z
" clip-path="url(#p964911a335)" style="fill: #4e1f6f; stroke: #000000; stroke-linejoin: miter"/>
   </g>
   <g id="patch_6">
    <path d="M 169.665 525.06 
L 238.665 525.06 
L 238.665 452.530109 
L 169.665 452.530109 
z
" clip-path="url(#p964911a335)" style="fill: #a74779; stroke: #000000; stroke-linejoin: miter"/>
   </g>
   <g id="patch_7">
    <path d="M 428.415 525.06 
L 497.415 525.06 
L 497.415 309.45982 
L 428.415 309.45982 
z
" clip-path="url(#p964911a335)" style="fill: #a74779; stroke: #000000; stroke-linejoin: miter"/>
   </g>
   <g id="patch_8">
    <path d="M 687.165 525.06 
L 756.165 525.06 
L 756.165 86.585187 
L 687.165 86.585187 
z
" clip-path="url(#p964911a335)" style="fill: #a74779; stroke: #000000; stroke-linejoin: miter"/>
   </g>
   <g id="patch_9">
    <path d="M 238.665 525.06 
L 307.665 525.06 
L 307.665 448.85446 
L 238.665 448.85446 
z
" clip-path="url(#p964911a335)" style="fill: #e89275; stroke: #000000; stroke-linejoin: miter"/>
   </g>
   <g id="patch_10">
    <path d="M 497.415 525.06 
L 566.415 525.06 
L 566.415 303.946571 
L 497.415 303.946571 
z
" clip-path="url(#p964911a335)" style="fill: #e89275; stroke: #000000; stroke-linejoin: miter"/>
   </g>
   <g id="patch_11">
    <path d="M 756.165 525.06 
L 825.165 525.06 
L 825.165 79.234339 
L 756.165 79.234339 
z
" clip-path="url(#p964911a335)" style="fill: #e89275; stroke: #000000; stroke-linejoin: miter"/>
   </g>
   <g id="patch_12">
    <path d="M 204.165 525.06 
L 204.165 525.06 
L 204.165 525.06 
L 204.165 525.06 
z
" clip-path="url(#p964911a335)" style="fill: #4e1f6f; stroke: #000000; stroke-linejoin: miter"/>
   </g>
   <g id="patch_13">
    <path d="M 204.165 525.06 
L 204.165 525.06 
L 204.165 525.06 
L 204.165 525.06 
z
" clip-path="url(#p964911a335)" style="fill: #a74779; stroke: #000000; stroke-linejoin: miter"/>
   </g>
   <g id="patch_14">
    <path d="M 204.165 525.06 
L 204.165 525.06 
L 204.165 525.06 
L 204.165 525.06 
z
" clip-path="url(#p964911a335)" style="fill: #e89275; stroke: #000000; stroke-linejoin: miter"/>
   </g>
   <g id="line2d_9">
    <path clip-path="url(#p964911a335)" style="fill: none; stroke: #424242; stroke-width: 2.25; stroke-linecap: round"/>
   </g>
   <g id="line2d_10">
    <path clip-path="url(#p964911a335)" style="fill: none; stroke: #424242; stroke-width: 2.25; stroke-linecap: round"/>
   </g>
   <g id="line2d_11">
    <path clip-path="url(#p964911a335)" style="fill: none; stroke: #424242; stroke-width: 2.25; stroke-linecap: round"/>
   </g>
   <g id="line2d_12">
    <path clip-path="url(#p964911a335)" style="fill: none; stroke: #424242; stroke-width: 2.25; stroke-linecap: round"/>
   </g>
   <g id="line2d_13">
    <path clip-path="url(#p964911a335)" style="fill: none; stroke: #424242; stroke-width: 2.25; stroke-linecap: round"/>
   </g>
   <g id="line2d_14">
    <path clip-path="url(#p964911a335)" style="fill: none; stroke: #424242; stroke-width: 2.25; stroke-linecap: round"/>
   </g>
   <g id="line2d_15">
    <path clip-path="url(#p964911a335)" style="fill: none; stroke: #424242; stroke-width: 2.25; stroke-linecap: round"/>
   </g>
   <g id="line2d_16">
    <path clip-path="url(#p964911a335)" style="fill: none; stroke: #424242; stroke-width: 2.25; stroke-linecap: round"/>
   </g>
   <g id="line2d_17">
    <path clip-path="url(#p964911a335)" style="fill: none; stroke: #424242; stroke-width: 2.25; stroke-linecap: round"/>
   </g>
   <g id="patch_15">
    <path d="M 74.79 525.06 
L 74.79 30.48 
" style="fill: none; stroke: #cccccc; stroke-width: 1.25; stroke-linejoin: miter; stroke-linecap: square"/>
   </g>
   <g id="patch_16">
    <path d="M 851.04 525.06 
L 851.04 30.48 
" style="fill: none; stroke: #cccccc; stroke-width: 1.25; stroke-linejoin: miter; stroke-linecap: square"/>
   </g>
   <g id="patch_17">
    <path d="M 74.79 525.06 
L 851.04 525.06 
" style="fill: none; stroke: #cccccc; stroke-width: 1.25; stroke-linejoin: miter; stroke-linecap: square"/>
   </g>
   <g id="patch_18">
    <path d="M 74.79 30.48 
L 851.04 30.48 
" style="fill: none; stroke: #cccccc; stroke-width: 1.25; stroke-linejoin: miter; stroke-linecap: square"/>
   </g>
   <g id="text_14">
    <!-- 2706.38 -->
    <g style="fill: #262626" transform="translate(110.353125 430.756611) scale(0.12 -0.12)">
     <defs>
      <path id="DejaVuSans-37" d="M 525 4666 
L 3525 4666 
L 3525 4397 
L 1831 0 
L 1172 0 
L 2766 4134 
L 525 4134 
L 525 4666 
z
" transform="scale(0.015625)"/>
      <path id="DejaVuSans-2e" d="M 684 794 
L 1344 794 
L 1344 0 
L 684 0 
L 684 794 
z
" transform="scale(0.015625)"/>
     </defs>
     <use xlink:href="#DejaVuSans-32"/>
     <use xlink:href="#DejaVuSans-37" x="63.623047"/>
     <use xlink:href="#DejaVuSans-30" x="127.246094"/>
     <use xlink:href="#DejaVuSans-36" x="190.869141"/>
     <use xlink:href="#DejaVuSans-2e" x="254.492188"/>
     <use xlink:href="#DejaVuSans-33" x="286.279297"/>
     <use xlink:href="#DejaVuSans-38" x="349.902344"/>
    </g>
   </g>
   <g id="text_15">
    <!-- 7314.38 -->
    <g style="fill: #262626" transform="translate(369.103125 279.548379) scale(0.12 -0.12)">
     <use xlink:href="#DejaVuSans-37"/>
     <use xlink:href="#DejaVuSans-33" x="63.623047"/>
     <use xlink:href="#DejaVuSans-31" x="127.246094"/>
     <use xlink:href="#DejaVuSans-34" x="190.869141"/>
     <use xlink:href="#DejaVuSans-2e" x="254.492188"/>
     <use xlink:href="#DejaVuSans-33" x="286.279297"/>
     <use xlink:href="#DejaVuSans-38" x="349.902344"/>
    </g>
   </g>
   <g id="text_16">
    <!-- 14354.38 -->
    <g style="fill: #262626" transform="translate(624.035625 48.535804) scale(0.12 -0.12)">
     <use xlink:href="#DejaVuSans-31"/>
     <use xlink:href="#DejaVuSans-34" x="63.623047"/>
     <use xlink:href="#DejaVuSans-33" x="127.246094"/>
     <use xlink:href="#DejaVuSans-35" x="190.869141"/>
     <use xlink:href="#DejaVuSans-34" x="254.492188"/>
     <use xlink:href="#DejaVuSans-2e" x="318.115234"/>
     <use xlink:href="#DejaVuSans-33" x="349.902344"/>
     <use xlink:href="#DejaVuSans-38" x="413.525391"/>
    </g>
   </g>
   <g id="text_17">
    <!-- 2210.31 -->
    <g style="fill: #262626" transform="translate(179.353125 447.034484) scale(0.12 -0.12)">
     <use xlink:href="#DejaVuSans-32"/>
     <use xlink:href="#DejaVuSans-32" x="63.623047"/>
     <use xlink:href="#DejaVuSans-31" x="127.246094"/>
     <use xlink:href="#DejaVuSans-30" x="190.869141"/>
     <use xlink:href="#DejaVuSans-2e" x="254.492188"/>
     <use xlink:href="#DejaVuSans-33" x="286.279297"/>
     <use xlink:href="#DejaVuSans-31" x="349.902344"/>
    </g>
   </g>
   <g id="text_18">
    <!-- 6570.31 -->
    <g style="fill: #262626" transform="translate(438.103125 303.964195) scale(0.12 -0.12)">
     <use xlink:href="#DejaVuSans-36"/>
     <use xlink:href="#DejaVuSans-35" x="63.623047"/>
     <use xlink:href="#DejaVuSans-37" x="127.246094"/>
     <use xlink:href="#DejaVuSans-30" x="190.869141"/>
     <use xlink:href="#DejaVuSans-2e" x="254.492188"/>
     <use xlink:href="#DejaVuSans-33" x="286.279297"/>
     <use xlink:href="#DejaVuSans-31" x="349.902344"/>
    </g>
   </g>
   <g id="text_19">
    <!-- 13362.31 -->
    <g style="fill: #262626" transform="translate(693.035625 81.089562) scale(0.12 -0.12)">
     <use xlink:href="#DejaVuSans-31"/>
     <use xlink:href="#DejaVuSans-33" x="63.623047"/>
     <use xlink:href="#DejaVuSans-33" x="127.246094"/>
     <use xlink:href="#DejaVuSans-36" x="190.869141"/>
     <use xlink:href="#DejaVuSans-32" x="254.492188"/>
     <use xlink:href="#DejaVuSans-2e" x="318.115234"/>
     <use xlink:href="#DejaVuSans-33" x="349.902344"/>
     <use xlink:href="#DejaVuSans-31" x="413.525391"/>
    </g>
   </g>
   <g id="text_20">
    <!-- 2322.33 -->
    <g style="fill: #262626" transform="translate(248.353125 443.358835) scale(0.12 -0.12)">
     <use xlink:href="#DejaVuSans-32"/>
     <use xlink:href="#DejaVuSans-33" x="63.623047"/>
     <use xlink:href="#DejaVuSans-32" x="127.246094"/>
     <use xlink:href="#DejaVuSans-32" x="190.869141"/>
     <use xlink:href="#DejaVuSans-2e" x="254.492188"/>
     <use xlink:href="#DejaVuSans-33" x="286.279297"/>
     <use xlink:href="#DejaVuSans-33" x="349.902344"/>
    </g>
   </g>
   <g id="text_21">
    <!-- 6738.33 -->
    <g style="fill: #262626" transform="translate(507.103125 298.450946) scale(0.12 -0.12)">
     <use xlink:href="#DejaVuSans-36"/>
     <use xlink:href="#DejaVuSans-37" x="63.623047"/>
     <use xlink:href="#DejaVuSans-33" x="127.246094"/>
     <use xlink:href="#DejaVuSans-38" x="190.869141"/>
     <use xlink:href="#DejaVuSans-2e" x="254.492188"/>
     <use xlink:href="#DejaVuSans-33" x="286.279297"/>
     <use xlink:href="#DejaVuSans-33" x="349.902344"/>
    </g>
   </g>
   <g id="text_22">
    <!-- 13586.33 -->
    <g style="fill: #262626" transform="translate(762.035625 73.738714) scale(0.12 -0.12)">
     <use xlink:href="#DejaVuSans-31"/>
     <use xlink:href="#DejaVuSans-33" x="63.623047"/>
     <use xlink:href="#DejaVuSans-35" x="127.246094"/>
     <use xlink:href="#DejaVuSans-38" x="190.869141"/>
     <use xlink:href="#DejaVuSans-36" x="254.492188"/>
     <use xlink:href="#DejaVuSans-2e" x="318.115234"/>
     <use xlink:href="#DejaVuSans-33" x="349.902344"/>
     <use xlink:href="#DejaVuSans-33" x="413.525391"/>
    </g>
   </g>
   <g id="text_23">
    <!-- Average Peak Memory (MB) by Method and Seq Length for Llama3 8B Model -->
    <g style="fill: #262626" transform="translate(156.87875 24.48) scale(0.16 -0.16)">
     <defs>
      <path id="DejaVuSans-41" d="M 2188 4044 
L 1331 1722 
L 3047 1722 
L 2188 4044 
z
M 1831 4666 
L 2547 4666 
L 4325 0 
L 3669 0 
L 3244 1197 
L 1141 1197 
L 716 0 
L 50 0 
L 1831 4666 
z
" transform="scale(0.015625)"/>
      <path id="DejaVuSans-76" d="M 191 3500 
L 800 3500 
L 1894 563 
L 2988 3500 
L 3597 3500 
L 2284 0 
L 1503 0 
L 191 3500 
z
" transform="scale(0.015625)"/>
      <path id="DejaVuSans-62" d="M 3116 1747 
Q 3116 2381 2855 2742 
Q 2594 3103 2138 3103 
Q 1681 3103 1420 2742 
Q 1159 2381 1159 1747 
Q 1159 1113 1420 752 
Q 1681 391 2138 391 
Q 2594 391 2855 752 
Q 3116 1113 3116 1747 
z
M 1159 2969 
Q 1341 3281 1617 3432 
Q 1894 3584 2278 3584 
Q 2916 3584 3314 3078 
Q 3713 2572 3713 1747 
Q 3713 922 3314 415 
Q 2916 -91 2278 -91 
Q 1894 -91 1617 61 
Q 1341 213 1159 525 
L 1159 0 
L 581 0 
L 581 4863 
L 1159 4863 
L 1159 2969 
z
" transform="scale(0.015625)"/>
      <path id="DejaVuSans-64" d="M 2906 2969 
L 2906 4863 
L 3481 4863 
L 3481 0 
L 2906 0 
L 2906 525 
Q 2725 213 2448 61 
Q 2172 -91 1784 -91 
Q 1150 -91 751 415 
Q 353 922 353 1747 
Q 353 2572 751 3078 
Q 1150 3584 1784 3584 
Q 2172 3584 2448 3432 
Q 2725 3281 2906 2969 
z
M 947 1747 
Q 947 1113 1208 752 
Q 1469 391 1925 391 
Q 2381 391 2643 752 
Q 2906 1113 2906 1747 
Q 2906 2381 2643 2742 
Q 2381 3103 1925 3103 
Q 1469 3103 1208 2742 
Q 947 2381 947 1747 
z
" transform="scale(0.015625)"/>
      <path id="DejaVuSans-66" d="M 2375 4863 
L 2375 4384 
L 1825 4384 
Q 1516 4384 1395 4259 
Q 1275 4134 1275 3809 
L 1275 3500 
L 2222 3500 
L 2222 3053 
L 1275 3053 
L 1275 0 
L 697 0 
L 697 3053 
L 147 3053 
L 147 3500 
L 697 3500 
L 697 3744 
Q 697 4328 969 4595 
Q 1241 4863 1831 4863 
L 2375 4863 
z
" transform="scale(0.015625)"/>
      <path id="DejaVuSans-6c" d="M 603 4863 
L 1178 4863 
L 1178 0 
L 603 0 
L 603 4863 
z
" transform="scale(0.015625)"/>
     </defs>
     <use xlink:href="#DejaVuSans-41"/>
     <use xlink:href="#DejaVuSans-76" x="62.533203"/>
     <use xlink:href="#DejaVuSans-65" x="121.712891"/>
     <use xlink:href="#DejaVuSans-72" x="183.236328"/>
     <use xlink:href="#DejaVuSans-61" x="224.349609"/>
     <use xlink:href="#DejaVuSans-67" x="285.628906"/>
     <use xlink:href="#DejaVuSans-65" x="349.105469"/>
     <use xlink:href="#DejaVuSans-20" x="410.628906"/>
     <use xlink:href="#DejaVuSans-50" x="442.416016"/>
     <use xlink:href="#DejaVuSans-65" x="499.09375"/>
     <use xlink:href="#DejaVuSans-61" x="560.617188"/>
     <use xlink:href="#DejaVuSans-6b" x="621.896484"/>
     <use xlink:href="#DejaVuSans-20" x="679.806641"/>
     <use xlink:href="#DejaVuSans-4d" x="711.59375"/>
     <use xlink:href="#DejaVuSans-65" x="797.873047"/>
     <use xlink:href="#DejaVuSans-6d" x="859.396484"/>
     <use xlink:href="#DejaVuSans-6f" x="956.808594"/>
     <use xlink:href="#DejaVuSans-72" x="1017.990234"/>
     <use xlink:href="#DejaVuSans-79" x="1059.103516"/>
     <use xlink:href="#DejaVuSans-20" x="1118.283203"/>
     <use xlink:href="#DejaVuSans-28" x="1150.070312"/>
     <use xlink:href="#DejaVuSans-4d" x="1189.083984"/>
     <use xlink:href="#DejaVuSans-42" x="1275.363281"/>
     <use xlink:href="#DejaVuSans-29" x="1343.966797"/>
     <use xlink:href="#DejaVuSans-20" x="1382.980469"/>
     <use xlink:href="#DejaVuSans-62" x="1414.767578"/>
     <use xlink:href="#DejaVuSans-79" x="1478.244141"/>
     <use xlink:href="#DejaVuSans-20" x="1537.423828"/>
     <use xlink:href="#DejaVuSans-4d" x="1569.210938"/>
     <use xlink:href="#DejaVuSans-65" x="1655.490234"/>
     <use xlink:href="#DejaVuSans-74" x="1717.013672"/>
     <use xlink:href="#DejaVuSans-68" x="1756.222656"/>
     <use xlink:href="#DejaVuSans-6f" x="1819.601562"/>
     <use xlink:href="#DejaVuSans-64" x="1880.783203"/>
     <use xlink:href="#DejaVuSans-20" x="1944.259766"/>
     <use xlink:href="#DejaVuSans-61" x="1976.046875"/>
     <use xlink:href="#DejaVuSans-6e" x="2037.326172"/>
     <use xlink:href="#DejaVuSans-64" x="2100.705078"/>
     <use xlink:href="#DejaVuSans-20" x="2164.181641"/>
     <use xlink:href="#DejaVuSans-53" x="2195.96875"/>
     <use xlink:href="#DejaVuSans-65" x="2259.445312"/>
     <use xlink:href="#DejaVuSans-71" x="2320.96875"/>
     <use xlink:href="#DejaVuSans-20" x="2384.445312"/>
     <use xlink:href="#DejaVuSans-4c" x="2416.232422"/>
     <use xlink:href="#DejaVuSans-65" x="2470.195312"/>
     <use xlink:href="#DejaVuSans-6e" x="2531.71875"/>
     <use xlink:href="#DejaVuSans-67" x="2595.097656"/>
     <use xlink:href="#DejaVuSans-74" x="2658.574219"/>
     <use xlink:href="#DejaVuSans-68" x="2697.783203"/>
     <use xlink:href="#DejaVuSans-20" x="2761.162109"/>
     <use xlink:href="#DejaVuSans-66" x="2792.949219"/>
     <use xlink:href="#DejaVuSans-6f" x="2828.154297"/>
     <use xlink:href="#DejaVuSans-72" x="2889.335938"/>
     <use xlink:href="#DejaVuSans-20" x="2930.449219"/>
     <use xlink:href="#DejaVuSans-4c" x="2962.236328"/>
     <use xlink:href="#DejaVuSans-6c" x="3017.949219"/>
     <use xlink:href="#DejaVuSans-61" x="3045.732422"/>
     <use xlink:href="#DejaVuSans-6d" x="3107.011719"/>
     <use xlink:href="#DejaVuSans-61" x="3204.423828"/>
     <use xlink:href="#DejaVuSans-33" x="3265.703125"/>
     <use xlink:href="#DejaVuSans-20" x="3329.326172"/>
     <use xlink:href="#DejaVuSans-38" x="3361.113281"/>
     <use xlink:href="#DejaVuSans-42" x="3424.736328"/>
     <use xlink:href="#DejaVuSans-20" x="3493.339844"/>
     <use xlink:href="#DejaVuSans-4d" x="3525.126953"/>
     <use xlink:href="#DejaVuSans-6f" x="3611.40625"/>
     <use xlink:href="#DejaVuSans-64" x="3672.587891"/>
     <use xlink:href="#DejaVuSans-65" x="3736.064453"/>
     <use xlink:href="#DejaVuSans-6c" x="3797.587891"/>
    </g>
   </g>
   <g id="legend_1">
    <g id="patch_19">
     <path d="M 83.19 112.470625 
L 160.2375 112.470625 
Q 162.6375 112.470625 162.6375 110.070625 
L 162.6375 38.88 
Q 162.6375 36.48 160.2375 36.48 
L 83.19 36.48 
Q 80.79 36.48 80.79 38.88 
L 80.79 110.070625 
Q 80.79 112.470625 83.19 112.470625 
z
" style="fill: #ffffff; opacity: 0.8; stroke: #cccccc; stroke-linejoin: miter"/>
    </g>
    <g id="text_24">
     <!-- Method -->
     <g style="fill: #262626" transform="translate(95.459375 51.917812) scale(0.14 -0.14)">
      <use xlink:href="#DejaVuSans-4d"/>
      <use xlink:href="#DejaVuSans-65" x="86.279297"/>
      <use xlink:href="#DejaVuSans-74" x="147.802734"/>
      <use xlink:href="#DejaVuSans-68" x="187.011719"/>
      <use xlink:href="#DejaVuSans-6f" x="250.390625"/>
      <use xlink:href="#DejaVuSans-64" x="311.572266"/>
     </g>
    </g>
    <g id="patch_20">
     <path d="M 85.59 69.9475 
L 109.59 69.9475 
L 109.59 61.5475 
L 85.59 61.5475 
z
" style="fill: #4e1f6f; stroke: #000000; stroke-linejoin: miter"/>
    </g>
    <g id="text_25">
     <!-- MHA -->
     <g style="fill: #262626" transform="translate(119.19 69.9475) scale(0.12 -0.12)">
      <defs>
       <path id="DejaVuSans-48" d="M 628 4666 
L 1259 4666 
L 1259 2753 
L 3553 2753 
L 3553 4666 
L 4184 4666 
L 4184 0 
L 3553 0 
L 3553 2222 
L 1259 2222 
L 1259 0 
L 628 0 
L 628 4666 
z
" transform="scale(0.015625)"/>
      </defs>
      <use xlink:href="#DejaVuSans-4d"/>
      <use xlink:href="#DejaVuSans-48" x="86.279297"/>
      <use xlink:href="#DejaVuSans-41" x="161.474609"/>
     </g>
    </g>
    <g id="patch_21">
     <path d="M 85.59 87.56125 
L 109.59 87.56125 
L 109.59 79.16125 
L 85.59 79.16125 
z
" style="fill: #a74779; stroke: #000000; stroke-linejoin: miter"/>
    </g>
    <g id="text_26">
     <!-- MQA -->
     <g style="fill: #262626" transform="translate(119.19 87.56125) scale(0.12 -0.12)">
      <defs>
       <path id="DejaVuSans-51" d="M 2522 4238 
Q 1834 4238 1429 3725 
Q 1025 3213 1025 2328 
Q 1025 1447 1429 934 
Q 1834 422 2522 422 
Q 3209 422 3611 934 
Q 4013 1447 4013 2328 
Q 4013 3213 3611 3725 
Q 3209 4238 2522 4238 
z
M 3406 84 
L 4238 -825 
L 3475 -825 
L 2784 -78 
Q 2681 -84 2626 -87 
Q 2572 -91 2522 -91 
Q 1538 -91 948 567 
Q 359 1225 359 2328 
Q 359 3434 948 4092 
Q 1538 4750 2522 4750 
Q 3503 4750 4090 4092 
Q 4678 3434 4678 2328 
Q 4678 1516 4351 937 
Q 4025 359 3406 84 
z
" transform="scale(0.015625)"/>
      </defs>
      <use xlink:href="#DejaVuSans-4d"/>
      <use xlink:href="#DejaVuSans-51" x="86.279297"/>
      <use xlink:href="#DejaVuSans-41" x="164.990234"/>
     </g>
    </g>
    <g id="patch_22">
     <path d="M 85.59 105.175 
L 109.59 105.175 
L 109.59 96.775 
L 85.59 96.775 
z
" style="fill: #e89275; stroke: #000000; stroke-linejoin: miter"/>
    </g>
    <g id="text_27">
     <!-- GQA-8 -->
     <g style="fill: #262626" transform="translate(119.19 105.175) scale(0.12 -0.12)">
      <defs>
       <path id="DejaVuSans-47" d="M 3809 666 
L 3809 1919 
L 2778 1919 
L 2778 2438 
L 4434 2438 
L 4434 434 
Q 4069 175 3628 42 
Q 3188 -91 2688 -91 
Q 1594 -91 976 548 
Q 359 1188 359 2328 
Q 359 3472 976 4111 
Q 1594 4750 2688 4750 
Q 3144 4750 3555 4637 
Q 3966 4525 4313 4306 
L 4313 3634 
Q 3963 3931 3569 4081 
Q 3175 4231 2741 4231 
Q 1884 4231 1454 3753 
Q 1025 3275 1025 2328 
Q 1025 1384 1454 906 
Q 1884 428 2741 428 
Q 3075 428 3337 486 
Q 3600 544 3809 666 
z
" transform="scale(0.015625)"/>
       <path id="DejaVuSans-2d" d="M 313 2009 
L 1997 2009 
L 1997 1497 
L 313 1497 
L 313 2009 
z
" transform="scale(0.015625)"/>
      </defs>
      <use xlink:href="#DejaVuSans-47"/>
      <use xlink:href="#DejaVuSans-51" x="77.490234"/>
      <use xlink:href="#DejaVuSans-41" x="156.201172"/>
      <use xlink:href="#DejaVuSans-2d" x="222.359375"/>
      <use xlink:href="#DejaVuSans-38" x="258.443359"/>
     </g>
    </g>
   </g>
  </g>
 </g>
 <defs>
  <clipPath id="p964911a335">
   <rect x="74.79" y="30.48" width="776.25" height="494.58"/>
  </clipPath>
 </defs>
</svg>
